<svg xmlns="http://www.w3.org/2000/svg" viewBox="0 0 220 48" fill="none" role="img" aria-label="Nounmotion">
  <rect x="2" y="6" width="36" height="36" rx="10" fill="#2563EB"/>
  <path d="M12 28V20h4.2c2.4 0 3.9 1.2 3.9 3.1 0 1.9-1.5 3.1-3.9 3.1H12zm4.1-2.4c1 0 1.5-.5 1.5-1.2 0-.7-.5-1.2-1.5-1.2h-1.7v2.4h1.7zM22.8 28l2.9-8h2.3l2.9 8h-2.2l-.5-1.5h-3.7l-.5 1.5h-2.2zm3.4-3.3l-1-3-1 3h2zM32.2 28V20h3.8c2.2 0 3.6 1.1 3.6 2.8 0 1.1-.6 2-1.6 2.4L40 28h-2.4l-1.9-2.6h-1.5V28h-2zm2-4.5h1.5c.8 0 1.2-.4 1.2-1s-.4-1-1.2-1h-1.5v2z" fill="#fff"/>
  <text x="48" y="32" font-family="Segoe UI, Tahoma, Arial, sans-serif" font-size="22" font-weight="700" fill="#0F172A">Nounmotion</text>
  <text x="49" y="44" font-family="Segoe UI, Tahoma, Arial, sans-serif" font-size="9" font-weight="500" fill="#64748B" letter-spacing=".08em">WEB STUDIO</text>
</svg>
